<?xml version="1.0" encoding="UTF-8" standalone="no"?>
<!DOCTYPE svg PUBLIC "-//W3C//DTD SVG 1.1//EN" "http://www.w3.org/Graphics/SVG/1.1/DTD/svg11.dtd">
<svg width="100%" height="100%" viewBox="0 0 4389 4389" version="1.1" xmlns="http://www.w3.org/2000/svg" xmlns:xlink="http://www.w3.org/1999/xlink" xml:space="preserve" xmlns:serif="http://www.serif.com/" style="fill-rule:evenodd;clip-rule:evenodd;stroke-linecap:round;stroke-linejoin:round;">
    <g id="g48" transform="matrix(4.166667,0,0,4.166667,60.908208,55.928879)">
        <path id="path48" d="M512,81.349609l0,863.650391c162.22886,0 414.5896,-1.53906 510.6191,-1.53906c-160.67049,-278.28958 -348.2368,-570.68318 -510.6191,-862.111331Zm0,0c-162.3823,291.428151 -349.94857,583.821751 -510.6191406,862.111331c96.0295876,0 348.3902806,1.53906 510.6191406,1.53906l0,-863.650391Z" style="fill:#1a1a1a;fill-rule:nonzero;stroke:#000;stroke-width:32px;"/>
        <path id="path50" d="M512,443.78906l0,229.09571c78.276,-55.84544 184.30095,-132.80462 185.38086,-133.86524c1.32,-1.29 1.69,-2.58914 1.25,-4.36914c-39.1629,-58.15997 -112.87405,-90.87583 -186.63086,-90.86133Zm0,0c-73.72067,0.0145 -147.48774,32.73073 -186.63086,90.86133c-0.44,1.78 -0.07,3.07914 1.25,4.36914c1.07991,1.06062 107.10486,78.25418 185.38086,134.09961l0,-229.33008Zm-102.5,449.21094c-409.5,-893 -409.5,-893 0,0Z" style="fill:#ff8321;fill-rule:nonzero;"/>
        <path id="rect29-7" d="M512,443.78906c-73.72067,0.0145 -147.48774,32.73073 -186.63086,90.86133c-0.44,1.78 -0.07,3.07914 1.25,4.36914c1.07991,1.06062 107.10486,78.25418 185.38086,134.09961l0,-229.33008Zm-102.5,449.21094c-409.5,-893 -409.5,-893 0,0Z" style="fill:#ff4b0b;fill-rule:nonzero;"/>
        <path id="path44" d="M512,81.349609c-162.3823,291.428151 -349.94857,583.821751 -510.6191406,862.111331c96.0295876,0 348.3902806,1.53906 510.6191406,1.53906l0,-271.88086c-78.27608,-55.84549 -184.30095,-133.03899 -185.38086,-134.09961c-1.32,-1.29 -1.69,-2.58914 -1.25,-4.36914c39.14316,-58.13066 112.91012,-90.84687 186.63086,-90.86133l0,-362.439451Z" style="fill:#c84909;fill-rule:nonzero;"/>
        <path id="path45" d="M512,81.349609l0,362.439451c73.75688,-0.0145 147.46792,32.7013 186.63086,90.86133c0.44,1.78 0.07,3.07914 -1.25,4.36914c-1.07991,1.06062 -107.10478,78.01975 -185.38086,133.86524l0,272.11523c162.22886,0 414.5896,-1.53906 510.6191,-1.53906c-160.67049,-278.28958 -348.2368,-570.68318 -510.6191,-862.111331Z" style="fill:#ffaa48;fill-rule:nonzero;"/>
        <path id="rect31" d="M512,443.78906l0,229.09571c78.276,-55.84544 184.30095,-132.80462 185.38086,-133.86524c1.32,-1.29 1.69,-2.58914 1.25,-4.36914c-39.1629,-58.15997 -112.87405,-90.87583 -186.63086,-90.86133Z" style="fill:#ff8321;fill-rule:nonzero;"/>
        <path id="path42" d="M512,81.349609c-162.3823,291.428151 -349.94857,583.821751 -510.6191406,862.111331c96.0295876,0 348.3902806,1.53906 510.6191406,1.53906l0,-271.88086c-78.27608,-55.84549 -184.30095,-133.03899 -185.38086,-134.09961c-1.32,-1.29 -1.69,-2.58914 -1.25,-4.36914c39.14316,-58.13066 112.91012,-90.84687 186.63086,-90.86133l0,-362.439451Zm-209.19922,480.679691c24.40953,16.57934 183.19922,127.91886 183.19922,132.63086c0,4.27278 -139.09277,104.33984 -141.0293,104.33984c-24.47378,-15.42499 -47.03345,-34.45072 -70.10156,-52l-7.89844,-6.00977c-48.9299,-37.23992 -51.00023,-38.81109 -50.99023,-40.37109l0.01953,-0.47852l86.80078,-138.11132Zm-103.11133,166.79101c1.44212,1.0754 211.4938,159.25771 209.81055,164.17969c-66.9795,1.55071 -134.02846,0.96524 -201.03906,1.01953c-90.69983,0.0735 -109.340473,0.0911 -110.230471,-3.87891c-0.18069,-0.7679 26.710501,-44.42134 46.939451,-77.23046c47.2299,-76.71986 52.18955,-84.78985 54.51953,-84.08985Z" style="fill:#ffd314;fill-rule:nonzero;"/>
        <path id="path43" d="M512,81.349609l0,362.439451c73.75688,-0.0145 147.46792,32.7013 186.63086,90.86133c0.44,1.78 0.07,3.07914 -1.25,4.36914c-1.07991,1.06062 -107.10478,78.01975 -185.38086,133.86524l0,272.11523c162.22886,0 414.5896,-1.53906 510.6191,-1.53906c-160.67049,-278.28958 -348.2368,-570.68318 -510.6191,-862.111331Zm209.19922,480.679691l86.80078,138.11132l0.0195,0.47852c0.01,1.56 -2.06033,3.13117 -50.99023,40.37109l-7.89841,6.00977c-23.06811,17.54928 -45.62778,36.57501 -70.10156,52c-1.93653,0 -141.0293,-100.06706 -141.0293,-104.33984c0,-4.712 158.78969,-116.05152 183.19922,-132.63086Zm103.11133,166.79101c2.32998,-0.7 7.28963,7.36999 54.51953,84.08985c20.22895,32.80912 47.12014,76.46256 46.93945,77.23046c-0.89,3.97 -19.53064,3.95241 -110.23047,3.87891c-67.0106,-0.05429 -134.05956,0.53118 -201.03906,-1.01953c-1.68325,-4.92198 208.36843,-163.10429 209.81055,-164.17969Z" style="fill:#ad4b08;fill-rule:nonzero;"/>
    </g>
</svg>
